<?xml version="1.0" standalone="no"?>
<!DOCTYPE svg PUBLIC "-//W3C//DTD SVG 20010904//EN"
 "http://www.w3.org/TR/2001/REC-SVG-20010904/DTD/svg10.dtd">
<svg version="1.0" xmlns="http://www.w3.org/2000/svg"
 width="260.000000pt" height="260.000000pt" viewBox="0 0 260.000000 260.000000"
 preserveAspectRatio="xMidYMid meet">
<metadata>
Created by potrace 1.11, written by Peter Selinger 2001-2013
</metadata>
<g transform="translate(0.000000,260.000000) scale(0.100000,-0.100000)"
fill="#000000" stroke="none">
<path d="M410 1329 l0 -1211 428 5 c235 2 441 7 457 11 17 3 66 13 110 22 374
73 689 316 840 649 31 67 60 155 81 247 36 149 37 450 3 623 -5 28 -11 61 -14
74 -2 14 -14 54 -26 90 -114 346 -371 568 -759 655 -166 38 -259 43 -707 45
l-413 2 0 -1212z m834 947 c447 -48 701 -253 788 -639 16 -71 21 -129 22 -257
1 -210 -8 -281 -54 -417 -112 -333 -397 -542 -793 -579 -76 -7 -486 -13 -503
-7 -8 3 -12 260 -12 953 0 855 2 949 16 952 31 6 469 1 536 -6z"/>
</g>
</svg>
